<svg
   width="114.99999mm"
   height="35mm"
   viewBox="0 0 114.99999 35"
   version="1.1"
   id="svg5"
   xmlns="http://www.w3.org/2000/svg">
  <defs
     id="defs2">
    <clipPath
       id="clip-path-2">
      <rect
         id="Rectangle_1173"
         data-name="Rectangle 1173"
         width="1416"
         height="426"
         transform="translate(-37)"
         fill="none"
         x="0"
         y="0" />
    </clipPath>
  </defs>
  <g 
     id="layer1"
     transform="translate(-86.756642,-45.778271)">
    <rect
       id="Rectangle_1177"
       data-name="Rectangle 1177"
       width="391.8479"
       height="122.93282"
       fill="none"
       x="-92.882912"
       y="-15.17229"
       style="stroke-width:0.264583" />
    <g
       id="g4791"
       transform="matrix(1.0077179,0,0,0.99406784,-149.05493,-33.082828)">
      <g
         id="Groupe_2346"
         data-name="Groupe 2346"
         clip-path="url(#clip-path-2)"
         transform="matrix(0.08059268,0,0,0.09110304,236.98747,77.509647)">
        <rect
           id="Rectangle_1172"
           data-name="Rectangle 1172"
           width="1416"
           height="386.47299"
           transform="translate(-37,20)"
           fill="#869ece"
           x="0"
           y="0" />
        <path
           id="Tracé_1174"
           data-name="Tracé 1174"
           d="m -37,185.3 -0.629,146.182"
           fill="#ffca00"/>
        <path
           id="Tracé_1187"
           data-name="Tracé 1187"
           d="m -37,231.321 c 128.870202,30.52151 648.33213,-64.97672 641.65,117.389 -147,-0.008 -483.029,-0.017 -641.062,-0.025"
           fill="#869ece" />
      </g>
      <g
         id="Logo"
         transform="matrix(0.26458333,0,0,0.26458333,248.72433,86.353451)">
        <g
           id="Groupe_1012"
           data-name="Groupe 1012"
           transform="translate(10.352,16.621)">
          <path
             id="Tracé_589"
             data-name="Tracé 589"
             d="m 293.952,256.581 a 8.755,8.755 0 0 0 2.4,0.3 5.368,5.368 0 0 0 2.553,-0.65 3.672,3.672 0 0 0 0.946,-0.7 1.145,1.145 0 0 0 0.373,-0.774 2.478,2.478 0 0 0 -0.1,-0.708 c -0.063,-0.216 -0.131,-0.462 -0.2,-0.735 a 2.859,2.859 0 0 0 -0.326,-0.775 0.809,0.809 0 0 0 -0.754,-0.363 l -1.97,0.268 a 6.989,6.989 0 0 1 -3.863,-1.358 21.234,21.234 0 0 1 -3.154,-2.867 l -2.352,-2.487 a 8.666,8.666 0 0 0 1.318,0.1 9.723,9.723 0 0 0 6.808,-2.658 9.05,9.05 0 0 0 3.059,-6.94 q 0,-8.987 -11.377,-8.988 h -8.528 a 1.313,1.313 0 0 0 -1.157,0.506 2,2 0 0 0 -0.354,1.176 v 26.425 a 1.632,1.632 0 0 0 0.344,0.9 0.816,0.816 0 0 0 0.727,0.306 h 2.735 a 0.841,0.841 0 0 0 0.44,-0.115 1.188,1.188 0 0 0 0.516,-1.09 v -9.808 a 14.139,14.139 0 0 1 1.205,1.3 l 3.154,3.9 q 0.917,1.09 2.477,2.619 a 14.85,14.85 0 0 0 3.049,2.371 9.447,9.447 0 0 0 2.031,0.845 z m -8,-14.189 a 17.537,17.537 0 0 1 -3.91,-0.5 v -10.474 h 5.144 a 8.66,8.66 0 0 1 4.666,1.09 4.406,4.406 0 0 1 2.045,4 5.043,5.043 0 0 1 -2.371,4.531 7.539,7.539 0 0 1 -2.448,1.033 13.67,13.67 0 0 1 -3.129,0.32 z"
             transform="translate(-213.731,-226.69)"
             fill="#000091" />
          <path
             id="Tracé_590"
             data-name="Tracé 590"
             d="m 329.539,257.286 a 1.438,1.438 0 0 0 0.393,-0.909 1.986,1.986 0 0 0 -0.172,-0.822 l -0.517,-1.071 a 1.151,1.151 0 0 0 -1.071,-0.707 1.429,1.429 0 0 0 -0.783,0.3 8.657,8.657 0 0 1 -5.048,1.626 6.506,6.506 0 0 1 -4.723,-1.682 5.543,5.543 0 0 1 -1.664,-4.208 l 0.019,-0.363 a 20.345,20.345 0 0 0 5.3,0.823 10.912,10.912 0 0 0 6,-1.472 5.457,5.457 0 0 0 2.6,-4.876 6.184,6.184 0 0 0 -2.218,-5.067 7.2,7.2 0 0 0 -2.495,-1.3 12.138,12.138 0 0 0 -3.5,-0.44 12.271,12.271 0 0 0 -4.006,0.669 q -6.233,2.162 -6.233,11.015 a 10.671,10.671 0 0 0 3.04,8.011 9.386,9.386 0 0 0 3.356,2.122 10.921,10.921 0 0 0 3.852,0.727 17.3,17.3 0 0 0 3.671,-0.381 15.211,15.211 0 0 0 1.712,-0.479 7.591,7.591 0 0 0 1.462,-0.67 4.019,4.019 0 0 0 1.025,-0.846 z M 316.815,243.7 q 1.395,-2.562 4.895,-2.563 3.67,0 3.671,2.735 0,2.869 -5.029,2.868 a 9.355,9.355 0 0 1 -4.187,-0.821 5.966,5.966 0 0 1 0.65,-2.219 z"
             transform="translate(-222.816,-229.318)"
             fill="#000091" />
          <path
             id="Tracé_591"
             data-name="Tracé 591"
             d="m 357.021,257.838 a 4.033,4.033 0 0 0 1.022,-0.928 1.63,1.63 0 0 0 0.382,-0.975 1.936,1.936 0 0 0 -0.286,-0.967 l -0.421,-0.707 a 1.234,1.234 0 0 0 -1.09,-0.631 1.858,1.858 0 0 0 -0.87,0.306 q -0.526,0.306 -1.233,0.67 a 11.871,11.871 0 0 1 -1.607,0.669 7.211,7.211 0 0 1 -2.294,0.306 5.452,5.452 0 0 1 -2.544,-0.593 q -3.174,-1.624 -3.174,-6.845 a 8.732,8.732 0 0 1 1.262,-4.78 5.393,5.393 0 0 1 1.682,-1.664 4.829,4.829 0 0 1 2.611,-0.65 3.679,3.679 0 0 1 2.514,0.823 3.386,3.386 0 0 1 1.089,2.715 1.377,1.377 0 0 0 1.568,1.549 h 0.459 a 2.071,2.071 0 0 0 2.371,-2.313 6.173,6.173 0 0 0 -1.816,-4.551 8.5,8.5 0 0 0 -6.214,-2.122 9.882,9.882 0 0 0 -7.432,2.944 10.094,10.094 0 0 0 -2.151,3.5 13.225,13.225 0 0 0 -0.774,4.666 14.349,14.349 0 0 0 0.726,4.7 9.407,9.407 0 0 0 5.374,5.889 11.566,11.566 0 0 0 7.687,0.344 14.816,14.816 0 0 0 1.7,-0.593 8.982,8.982 0 0 0 1.459,-0.762 z"
             transform="translate(-230.437,-229.325)"
             fill="#000091" />
          <path
             id="Tracé_592"
             data-name="Tracé 592"
             d="m 382.221,259.285 a 15.21,15.21 0 0 0 1.712,-0.479 7.6,7.6 0 0 0 1.463,-0.67 4.058,4.058 0 0 0 1.023,-0.85 1.44,1.44 0 0 0 0.391,-0.909 1.974,1.974 0 0 0 -0.172,-0.822 l -0.516,-1.071 a 1.151,1.151 0 0 0 -1.071,-0.707 1.429,1.429 0 0 0 -0.785,0.3 8.652,8.652 0 0 1 -5.048,1.626 6.509,6.509 0 0 1 -4.723,-1.682 5.548,5.548 0 0 1 -1.663,-4.208 l 0.019,-0.363 a 20.345,20.345 0 0 0 5.3,0.823 10.912,10.912 0 0 0 6,-1.472 5.457,5.457 0 0 0 2.6,-4.876 6.187,6.187 0 0 0 -2.219,-5.067 7.208,7.208 0 0 0 -2.495,-1.3 12.138,12.138 0 0 0 -3.5,-0.44 12.275,12.275 0 0 0 -4.006,0.669 q -6.233,2.162 -6.233,11.015 a 10.676,10.676 0 0 0 3.039,8.011 9.4,9.4 0 0 0 3.356,2.122 10.928,10.928 0 0 0 3.853,0.727 17.3,17.3 0 0 0 3.675,-0.377 z M 373.692,243.7 q 1.4,-2.562 4.9,-2.563 3.672,0 3.671,2.735 0,2.869 -5.029,2.868 a 9.355,9.355 0 0 1 -4.187,-0.821 5.98,5.98 0 0 1 0.645,-2.219 z"
             transform="translate(-237.949,-229.318)"
             fill="#000091" />
          <path
             id="Tracé_593"
             data-name="Tracé 593"
             d="m 416.314,259.2 a 1.329,1.329 0 0 0 1.013,-0.363 1.251,1.251 0 0 0 0.345,-0.9 V 246.06 a 11.462,11.462 0 0 0 -1.453,-6.368 5.414,5.414 0 0 0 -2.142,-1.863 6.512,6.512 0 0 0 -2.953,-0.678 10.55,10.55 0 0 0 -2.667,0.286 7.891,7.891 0 0 0 -5.125,4.016 13.825,13.825 0 0 0 -0.918,-3.022 1.455,1.455 0 0 0 -1.453,-0.8 h -1.051 q -1.319,0 -1.32,1.377 a 18.224,18.224 0 0 0 0.249,1.826 38.665,38.665 0 0 1 0.249,5.364 v 11.74 a 1.256,1.256 0 0 0 0.343,0.9 1.333,1.333 0 0 0 1.014,0.363 h 1.969 a 1.267,1.267 0 0 0 0.994,-0.363 1.3,1.3 0 0 0 0.326,-0.9 V 247.3 a 6.1,6.1 0 0 1 1.854,-4.4 5.316,5.316 0 0 1 3.844,-1.76 q 3.594,0 3.594,4.9 v 11.894 a 1.254,1.254 0 0 0 0.344,0.9 1.412,1.412 0 0 0 1.071,0.363 z"
             transform="translate(-246.007,-229.325)"
             fill="#000091" />
          <path
             id="Tracé_594"
             data-name="Tracé 594"
             d="m 443.4,248.775 a 11.688,11.688 0 0 0 -3.384,-1.969 l -2.065,-0.861 a 14.653,14.653 0 0 1 -1.644,-0.764 3.881,3.881 0 0 1 -1.08,-0.842 1.974,1.974 0 0 1 -0.392,-1.319 1.7,1.7 0 0 1 0.975,-1.453 2.95,2.95 0 0 1 0.9,-0.363 6.035,6.035 0 0 1 1.309,-0.115 6.17,6.17 0 0 1 1.769,0.287 4.918,4.918 0 0 1 0.832,0.3 q 0.392,0.182 0.879,0.43 a 2.363,2.363 0 0 0 1.09,0.248 q 0.6,0 1.052,-1 a 4.554,4.554 0 0 0 0.449,-1.844 1.283,1.283 0 0 0 -0.765,-1.052 10.939,10.939 0 0 0 -5.564,-1.3 8.777,8.777 0 0 0 -5.22,1.51 5.287,5.287 0 0 0 -2.39,4.551 5.9,5.9 0 0 0 1.262,3.882 6.978,6.978 0 0 0 1.444,1.29 15.44,15.44 0 0 0 1.787,1.043 15.058,15.058 0 0 0 2,0.823 18.877,18.877 0 0 1 1.921,0.744 q 2.084,0.938 2.084,2.3 0,2.467 -3.672,2.467 a 6.991,6.991 0 0 1 -2.39,-0.43 6.568,6.568 0 0 1 -1.864,-0.976 2.1,2.1 0 0 0 -1.281,-0.545 1.068,1.068 0 0 0 -0.956,0.661 q -0.354,0.659 -0.574,1.146 a 2.651,2.651 0 0 0 -0.219,1.1 q 0,0.612 1.013,1.377 2.065,1.587 6.176,1.586 a 8.837,8.837 0 0 0 6.253,-2.046 6.279,6.279 0 0 0 1.988,-4.78 5.654,5.654 0 0 0 -1.723,-4.086 z"
             transform="translate(-254.281,-229.325)"
             fill="#000091" />
          <path
             id="Tracé_595"
             data-name="Tracé 595"
             d="m 471.981,255.556 -0.516,-1.071 a 1.151,1.151 0 0 0 -1.071,-0.707 1.431,1.431 0 0 0 -0.785,0.3 8.652,8.652 0 0 1 -5.048,1.626 6.509,6.509 0 0 1 -4.723,-1.682 5.547,5.547 0 0 1 -1.662,-4.208 l 0.018,-0.363 a 20.345,20.345 0 0 0 5.3,0.823 10.91,10.91 0 0 0 6,-1.472 5.457,5.457 0 0 0 2.6,-4.876 6.185,6.185 0 0 0 -2.219,-5.067 7.2,7.2 0 0 0 -2.495,-1.3 12.138,12.138 0 0 0 -3.5,-0.44 12.275,12.275 0 0 0 -4.006,0.669 q -6.233,2.162 -6.233,11.015 a 10.674,10.674 0 0 0 3.04,8.011 9.4,9.4 0 0 0 3.356,2.122 10.928,10.928 0 0 0 3.853,0.727 17.309,17.309 0 0 0 3.671,-0.381 15.209,15.209 0 0 0 1.712,-0.479 7.617,7.617 0 0 0 1.463,-0.67 4.028,4.028 0 0 0 1.022,-0.85 1.437,1.437 0 0 0 0.392,-0.909 1.974,1.974 0 0 0 -0.169,-0.818 z M 459.035,243.7 q 1.4,-2.562 4.9,-2.563 3.672,0 3.671,2.735 0,2.869 -5.029,2.868 a 9.355,9.355 0 0 1 -4.187,-0.821 5.98,5.98 0 0 1 0.645,-2.219 z"
             transform="translate(-260.655,-229.318)"
             fill="#000091" />
          <path
             id="Tracé_596"
             data-name="Tracé 596"
             d="m 514.975,240.02 a 5.418,5.418 0 0 0 -2.256,-2.094 6.655,6.655 0 0 0 -3.145,-0.8 10.022,10.022 0 0 0 -2.7,0.305 8.829,8.829 0 0 0 -5.067,4.016 q -1.281,-4.3 -6.1,-4.3 a 7.736,7.736 0 0 0 -2.256,0.324 8.085,8.085 0 0 0 -4.818,3.977 14.348,14.348 0 0 0 -0.88,-3.022 1.455,1.455 0 0 0 -1.453,-0.8 h -1.051 q -1.319,0 -1.32,1.377 a 18.11,18.11 0 0 0 0.25,1.826 38.812,38.812 0 0 1 0.248,5.364 v 11.74 a 1.256,1.256 0 0 0 0.344,0.9 1.333,1.333 0 0 0 1.014,0.363 h 1.969 a 1.268,1.268 0 0 0 0.995,-0.363 1.3,1.3 0 0 0 0.326,-0.9 v -10.216 a 6.97,6.97 0 0 1 1.663,-4.743 4.744,4.744 0 0 1 3.672,-1.836 3.061,3.061 0 0 1 2.685,1.205 6.4,6.4 0 0 1 0.851,3.671 v 11.913 a 1.254,1.254 0 0 0 0.344,0.9 1.412,1.412 0 0 0 1.071,0.363 h 1.874 a 1.331,1.331 0 0 0 1.014,-0.363 1.256,1.256 0 0 0 0.344,-0.9 v -10.21 a 6.92,6.92 0 0 1 1.683,-4.743 4.69,4.69 0 0 1 3.652,-1.836 3.063,3.063 0 0 1 2.687,1.205 6.4,6.4 0 0 1 0.851,3.671 v 11.913 a 1.257,1.257 0 0 0 0.344,0.9 1.411,1.411 0 0 0 1.07,0.363 h 1.875 a 1.331,1.331 0 0 0 1.013,-0.363 1.254,1.254 0 0 0 0.344,-0.9 v -11.74 a 26.134,26.134 0 0 0 -0.2,-3.328 7.676,7.676 0 0 0 -0.937,-2.839 z"
             transform="translate(-268.714,-229.318)"
             fill="#000091" />
          <path
             id="Tracé_597"
             data-name="Tracé 597"
             d="m 550.783,257.286 a 1.437,1.437 0 0 0 0.392,-0.909 1.985,1.985 0 0 0 -0.172,-0.822 l -0.517,-1.071 a 1.151,1.151 0 0 0 -1.071,-0.707 1.431,1.431 0 0 0 -0.784,0.3 8.652,8.652 0 0 1 -5.048,1.626 6.508,6.508 0 0 1 -4.723,-1.682 5.548,5.548 0 0 1 -1.663,-4.208 l 0.018,-0.363 a 20.354,20.354 0 0 0 5.3,0.823 10.914,10.914 0 0 0 6,-1.472 5.456,5.456 0 0 0 2.6,-4.876 6.184,6.184 0 0 0 -2.218,-5.067 7.207,7.207 0 0 0 -2.495,-1.3 12.14,12.14 0 0 0 -3.5,-0.44 12.274,12.274 0 0 0 -4.005,0.669 q -6.234,2.162 -6.233,11.015 a 10.671,10.671 0 0 0 3.04,8.011 9.388,9.388 0 0 0 3.356,2.122 10.927,10.927 0 0 0 3.852,0.727 17.31,17.31 0 0 0 3.672,-0.381 15.211,15.211 0 0 0 1.712,-0.479 7.59,7.59 0 0 0 1.462,-0.67 4.031,4.031 0 0 0 1.025,-0.846 z M 538.058,243.7 q 1.4,-2.562 4.9,-2.563 3.671,0 3.671,2.735 0,2.869 -5.029,2.868 a 9.359,9.359 0 0 1 -4.188,-0.821 5.979,5.979 0 0 1 0.646,-2.219 z"
             transform="translate(-281.68,-229.318)"
             fill="#000091" />
          <path
             id="Tracé_598"
             data-name="Tracé 598"
             d="m 563.453,246.194 v 11.74 a 1.254,1.254 0 0 0 0.344,0.9 1.329,1.329 0 0 0 1.013,0.363 h 1.97 a 1.267,1.267 0 0 0 0.994,-0.363 1.3,1.3 0 0 0 0.325,-0.9 V 247.3 a 6.094,6.094 0 0 1 1.855,-4.4 5.312,5.312 0 0 1 3.843,-1.76 q 3.594,0 3.595,4.9 v 11.894 a 1.254,1.254 0 0 0 0.344,0.9 1.412,1.412 0 0 0 1.071,0.363 h 1.873 a 1.332,1.332 0 0 0 1.014,-0.363 1.256,1.256 0 0 0 0.344,-0.9 V 246.06 a 11.456,11.456 0 0 0 -1.453,-6.368 5.419,5.419 0 0 0 -2.141,-1.863 6.52,6.52 0 0 0 -2.954,-0.678 10.56,10.56 0 0 0 -2.668,0.286 7.888,7.888 0 0 0 -5.124,4.016 13.952,13.952 0 0 0 -0.917,-3.022 1.457,1.457 0 0 0 -1.454,-0.8 h -1.051 q -1.32,0 -1.32,1.377 a 18.36,18.36 0 0 0 0.248,1.826 38.646,38.646 0 0 1 0.249,5.36 z"
             transform="translate(-289.739,-229.325)"
             fill="#000091" />
          <path
             id="Tracé_599"
             data-name="Tracé 599"
             d="m 595.481,251.952 a 5.737,5.737 0 0 0 1.53,4.3 4.5,4.5 0 0 0 1.712,1.061 8.452,8.452 0 0 0 2.724,0.353 9.486,9.486 0 0 0 3.843,-0.956 6.111,6.111 0 0 0 1.539,-0.947 1.4,1.4 0 0 0 0.6,-0.928 2.543,2.543 0 0 0 -0.25,-0.975 l -0.44,-0.994 q -0.268,-0.631 -0.717,-0.631 a 1.5,1.5 0 0 0 -0.832,0.249 6.606,6.606 0 0 1 -3.19,1.228 1.715,1.715 0 0 1 -1.931,-1.95 v -12.009 h 5.392 q 1.2,0 1.2,-1.071 v -1.854 q 0,-1.052 -1.2,-1.052 h -5.392 v -4.321 a 1.4,1.4 0 0 0 -0.287,-0.908 0.9,0.9 0 0 0 -0.727,-0.354 h -1.585 q -0.822,0 -1.033,1.262 l -0.727,4.493 -1.913,0.555 a 1.7,1.7 0 0 0 -0.9,0.382 0.979,0.979 0 0 0 -0.229,0.688 v 1.09 q 0,1.09 1.2,1.09 h 1.607 z"
             transform="translate(-297.645,-227.474)"
             fill="#000091" />
          <path
             id="Tracé_600"
             data-name="Tracé 600"
             d="m 285.883,284.441 a 6.393,6.393 0 0 0 -3.208,-0.978 c -2.826,0 -5.355,1.848 -5.355,5.872 v 2.99 c 0,3.778 2.583,5.844 5.545,5.844 2.962,0 5.491,-2.066 5.491,-5.844 v -14.408 h -2.473 z m 0,7.747 c 0,2.582 -1.3,3.777 -3.018,3.777 -1.718,0 -3.044,-1.195 -3.044,-3.777 v -2.719 c 0,-2.826 1.386,-3.8 3.072,-3.8 a 5.958,5.958 0 0 1 2.99,0.95 z"
             transform="translate(-213.742,-240.171)"
             fill="#000091" />
          <path
             id="Tracé_601"
             data-name="Tracé 601"
             d="m 302.146,285.473 c -2.964,0 -5.383,1.984 -5.383,5.708 v 3.18 c 0,3.806 2.393,5.818 5.763,5.818 a 13.232,13.232 0 0 0 4.268,-0.708 l -0.489,-2.147 a 12.844,12.844 0 0 1 -3.779,0.651 c -2.039,0 -3.262,-1.114 -3.262,-3.615 v -0.815 h 8.29 v -2.881 a 5.174,5.174 0 0 0 -5.408,-5.191 z m 2.908,6.116 h -5.789 v -0.6 c 0,-2.175 1.2,-3.316 2.881,-3.316 a 2.8,2.8 0 0 1 2.908,2.99 z"
             transform="translate(-218.915,-242.182)"
             fill="#000091" />
          <path
             id="Tracé_602"
             data-name="Tracé 602"
             d="m 325.243,297.687 h 2.5 v -20.252 l -2.5,0.544 z"
             transform="translate(-226.493,-240.043)"
             fill="#000091" />
          <path
             id="Tracé_603"
             data-name="Tracé 603"
             d="m 338.379,285.473 a 14.075,14.075 0 0 0 -4.241,0.76 l 0.544,2.066 a 13.152,13.152 0 0 1 3.7,-0.625 c 1.766,0 2.691,1.06 2.691,2.962 v 0.762 h -2.745 c -3.018,0 -5.084,1.494 -5.084,4.24 0,2.556 2.23,4.54 5.192,4.54 a 4.834,4.834 0 0 0 5.111,-4.54 v -5 a 4.81,4.81 0 0 0 -5.168,-5.165 z m 2.691,10.166 a 2.654,2.654 0 0 1 -5.273,-0.026 c 0,-1.251 0.734,-2.257 2.528,-2.257 h 2.745 z"
             transform="translate(-228.621,-242.182)"
             fill="#000091" />
          <path
             id="Tracé_604"
             data-name="Tracé 604"
             d="m 366.118,285.473 c -2.963,0 -5.546,2.065 -5.546,5.844 v 14.244 h 2.5 V 299.2 a 6.5,6.5 0 0 0 3.208,0.978 c 2.827,0 5.355,-1.85 5.355,-5.872 v -2.99 c 0,-3.778 -2.554,-5.843 -5.517,-5.843 z m 3.044,8.7 c 0,2.826 -1.414,3.8 -3.072,3.8 a 6.059,6.059 0 0 1 -3.018,-0.95 v -5.572 c 0,-2.583 1.332,-3.778 3.045,-3.778 1.658,0 3.044,1.195 3.044,3.778 z"
             transform="translate(-235.892,-242.182)"
             fill="#000091" />
          <path
             id="Tracé_605"
             data-name="Tracé 605"
             d="m 385.734,285.473 c -3.262,0 -5.681,2.012 -5.681,6.142 v 2.42 c 0,4.1 2.419,6.144 5.681,6.144 3.262,0 5.681,-2.04 5.681,-6.144 v -2.42 c 0,-4.104 -2.415,-6.142 -5.681,-6.142 z m 3.18,8.426 c 0,2.936 -1.278,4.076 -3.18,4.076 -1.957,0 -3.181,-1.141 -3.181,-4.076 v -2.148 c 0,-2.962 1.25,-4.076 3.181,-4.076 1.957,0 3.18,1.114 3.18,4.076 z"
             transform="translate(-241.075,-242.182)"
             fill="#000091" />
          <path
             id="Tracé_606"
             data-name="Tracé 606"
             d="m 405.448,285.473 c -2.962,0 -5.545,2.065 -5.545,5.844 v 14.244 h 2.5 V 299.2 a 6.5,6.5 0 0 0 3.207,0.978 c 2.827,0 5.356,-1.85 5.356,-5.872 v -2.99 c 0,-3.778 -2.555,-5.843 -5.518,-5.843 z m 3.044,8.7 c 0,2.826 -1.414,3.8 -3.072,3.8 a 6.055,6.055 0 0 1 -3.017,-0.95 v -5.572 c 0,-2.583 1.331,-3.778 3.044,-3.778 1.659,0 3.044,1.195 3.044,3.778 z"
             transform="translate(-246.357,-242.182)"
             fill="#000091" />
          <path
             id="Tracé_607"
             data-name="Tracé 607"
             d="m 428.192,294.489 c 0,2.42 -1.2,3.615 -2.909,3.615 -1.685,0 -2.881,-1.195 -2.881,-3.615 v -8.536 h -2.5 v 8.671 c 0,3.7 2.392,5.682 5.382,5.682 2.964,0 5.41,-1.985 5.41,-5.682 v -8.671 h -2.5 z"
             transform="translate(-251.678,-242.309)"
             fill="#000091" />
          <path
             id="Tracé_608"
             data-name="Tracé 608"
             d="m 440.2,297.687 h 2.5 v -20.252 l -2.5,0.544 z"
             transform="translate(-257.077,-240.043)"
             fill="#000091" />
          <path
             id="Tracé_609"
             data-name="Tracé 609"
             d="m 453.333,285.473 a 14.07,14.07 0 0 0 -4.24,0.76 l 0.543,2.066 a 13.161,13.161 0 0 1 3.7,-0.625 c 1.767,0 2.691,1.06 2.691,2.962 v 0.762 h -2.745 c -3.017,0 -5.083,1.494 -5.083,4.24 0,2.556 2.229,4.54 5.192,4.54 a 4.834,4.834 0 0 0 5.111,-4.54 v -5 a 4.811,4.811 0 0 0 -5.169,-5.165 z m 2.691,10.166 a 2.654,2.654 0 0 1 -5.273,-0.026 c 0,-1.251 0.734,-2.257 2.528,-2.257 h 2.745 z"
             transform="translate(-259.206,-242.182)"
             fill="#000091" />
          <path
             id="Tracé_610"
             data-name="Tracé 610"
             d="m 469.736,279.8 -2.473,0.517 v 4 H 464.9 l 0.57,1.795 h 1.794 v 12.205 h 2.473 v -12.205 h 2.746 v -1.795 h -2.746 z"
             transform="translate(-263.65,-240.674)"
             fill="#000091" />
          <rect
             id="Rectangle_725"
             data-name="Rectangle 725"
             width="2.5009999"
             height="14"
             transform="translate(211.44,43.644)"
             fill="#000091"
             x="0"
             y="0" />
          <path
             id="Tracé_611"
             data-name="Tracé 611"
             d="m 479.917,278.509 a 1.536,1.536 0 1 0 0,3.072 1.59,1.59 0 0 0 1.576,-1.549 1.567,1.567 0 0 0 -1.576,-1.523 z"
             transform="translate(-267.226,-240.329)"
             fill="#000091" />
          <path
             id="Tracé_612"
             data-name="Tracé 612"
             d="m 492.946,285.473 c -3.262,0 -5.681,2.012 -5.681,6.142 v 2.42 c 0,4.1 2.419,6.144 5.681,6.144 3.262,0 5.681,-2.04 5.681,-6.144 v -2.42 c 10e-4,-4.104 -2.418,-6.142 -5.681,-6.142 z m 3.181,8.426 c 0,2.936 -1.278,4.076 -3.181,4.076 -1.957,0 -3.18,-1.141 -3.18,-4.076 v -2.148 c 0,-2.962 1.25,-4.076 3.18,-4.076 1.957,0 3.181,1.114 3.181,4.076 z"
             transform="translate(-269.601,-242.182)"
             fill="#000091" />
          <path
             id="Tracé_613"
             data-name="Tracé 613"
             d="m 513.044,285.473 c -2.936,0 -5.409,1.984 -5.409,5.681 v 8.671 h 2.5 v -8.536 c 0,-2.42 1.195,-3.615 2.908,-3.615 1.685,0 2.881,1.195 2.881,3.615 v 8.536 h 2.5 v -8.671 c 0.002,-3.697 -2.391,-5.681 -5.38,-5.681 z"
             transform="translate(-275.02,-242.182)"
             fill="#000091" />
          <path
             id="Tracé_614"
             data-name="Tracé 614"
             d="m 224.227,236.752 a 10.264,10.264 0 1 0 -10.263,10.263 10.275,10.275 0 0 0 10.263,-10.263 z m -15.937,0 a 5.673,5.673 0 1 1 5.673,5.673 5.68,5.68 0 0 1 -5.672,-5.673 z"
             transform="translate(-194.154,-226.488)"
             fill="#000091" />
          <path
             id="Tracé_615"
             data-name="Tracé 615"
             d="m 191.259,267.648 a 2.3610725,2.3610725 0 0 0 3.582,3.077 20.269,20.269 0 0 1 14.709,-6.106 c 9.445,0 14.476,4.242 14.515,4.274 0.039,0.032 0.079,0.068 0.118,0.1 0.061,0.048 6.081,4.792 5.92,10.035 a 2.36,2.36 0 0 0 2.287,2.432 h 0.074 a 2.362,2.362 0 0 0 2.359,-2.288 c 0.228,-7.42 -6.942,-13.278 -7.7,-13.875 -0.736,-0.622 -6.743,-5.4 -17.575,-5.4 a 25.055,25.055 0 0 0 -18.289,7.751 z"
             transform="translate(-190.694,-235.376)"
             fill="#000091" />
        </g>
        <g
           id="Groupe_1013"
           data-name="Groupe 1013">
          <path
             id="Tracé_616"
             data-name="Tracé 616"
             d="m 546.341,284.583 c 0,-3.37 -2.68,-5.636 -6.271,-5.636 a 11.94,11.94 0 0 0 -5.692,1.52 l 1.354,2.983 a 9.2,9.2 0 0 1 4.144,-1.16 2.2,2.2 0 0 1 2.459,2.294 c 0,3.563 -8.205,4.365 -8.205,11.244 v 2.156 h 12.184 v -3.234 h -7.9 c -0.003,-3.122 7.927,-4.95 7.927,-10.167 z"
             transform="translate(-271.718,-223.825)"
             fill="#000091" />
          <path
             id="Tracé_617"
             data-name="Tracé 617"
             d="m 561.258,278.947 c -3.813,0 -6.88,2.4 -6.88,7.625 v 4.116 c 0,5.251 3.122,7.653 6.88,7.653 3.729,0 6.878,-2.4 6.878,-7.653 v -4.116 c 0,-5.221 -3.094,-7.625 -6.878,-7.625 z m 2.956,11.741 c 0,3.178 -1.27,4.31 -2.956,4.31 -1.686,0 -2.956,-1.132 -2.956,-4.31 v -4.116 c 0,-3.176 1.27,-4.283 2.956,-4.283 1.686,0 2.956,1.106 2.956,4.283 z"
             transform="translate(-277.105,-223.825)"
             fill="#000091" />
          <path
             id="Tracé_618"
             data-name="Tracé 618"
             d="m 588.57,284.583 c 0,-3.37 -2.68,-5.636 -6.271,-5.636 a 11.939,11.939 0 0 0 -5.691,1.52 l 1.353,2.983 a 9.2,9.2 0 0 1 4.145,-1.16 2.2,2.2 0 0 1 2.459,2.294 c 0,3.563 -8.205,4.365 -8.205,11.244 v 2.156 h 12.184 v -3.234 h -7.9 c -0.003,-3.122 7.926,-4.95 7.926,-10.167 z"
             transform="translate(-282.954,-223.825)"
             fill="#000091" />
          <path
             id="Tracé_619"
             data-name="Tracé 619"
             d="m 608.292,284.583 c 0,-3.37 -2.68,-5.636 -6.271,-5.636 a 11.937,11.937 0 0 0 -5.691,1.52 l 1.353,2.983 a 9.2,9.2 0 0 1 4.145,-1.16 2.2,2.2 0 0 1 2.459,2.294 c 0,3.563 -8.205,4.365 -8.205,11.244 v 2.156 h 12.184 v -3.234 h -7.9 c -0.002,-3.122 7.926,-4.95 7.926,-10.167 z"
             transform="translate(-288.201,-223.825)"
             fill="#000091" />
          <path
             id="Tracé_620"
             data-name="Tracé 620"
             d="m 240.059,262.41 a 2.5680468,2.5680468 0 1 0 -5.136,0.031 l 0.149,24.569 a 1.762,1.762 0 0 0 0.016,0.263 0.973,0.973 0 0 1 -0.153,0.6 2.114,2.114 0 0 1 -1.377,0.314 H 183.4 a 2.114,2.114 0 0 1 -1.377,-0.314 0.969,0.969 0 0 1 -0.161,-0.539 2.564,2.564 0 0 0 0.023,-0.344 v -6.422 a 2.568,2.568 0 0 0 -5.136,0 v 6.312 a 6.106,6.106 0 0 0 1.4,4.365 6.618,6.618 0 0 0 5.251,2.079 h 50.16 a 6.616,6.616 0 0 0 5.251,-2.079 6.1,6.1 0 0 0 1.4,-4.374 z"
             transform="translate(-176.628,-218.745)"
             fill="#000091" />
          <path
             id="Tracé_621"
             data-name="Tracé 621"
             d="m 239.112,225.308 -29.527,-20.721 c -0.049,-0.034 -0.1,-0.068 -0.152,-0.1 a 4.177,4.177 0 0 0 -4.881,0.293 l -26.938,20.254 a 2.568,2.568 0 1 0 3.087,4.1 l 26.519,-19.934 28.941,20.309 a 2.568,2.568 0 1 0 2.95,-4.2 z"
             transform="translate(-176.59,-203.842)"
             fill="#000091" />
        </g>
      </g>
    </g>
  </g>
</svg>
