<svg id="Sticky_Homepage" data-name="Sticky/Homepage" xmlns="http://www.w3.org/2000/svg" width="270.78" height="148" viewBox="0 0 270.78 148">
  <g id="Calque_7" data-name="Calque 7" transform="translate(38.882)">
    <rect id="Rectangle_53" data-name="Rectangle 53" width="232" height="141" transform="translate(-0.102)" fill="#ffca00"/>
  </g>
  <text id="ICI" transform="translate(117.321 47.176)" fill="#000091" font-size="29" font-family="Marianne-Bold, Marianne" font-weight="700"><tspan x="0" y="0">ICI</tspan></text>
  <text id="JE_RÉPONDS_AU_Questionnaire" data-name="JE RÉPONDS AU 
Questionnaire" transform="translate(117.321 69.76)" fill="#000091" font-size="14" font-family="Marianne-Bold, Marianne" font-weight="700"><tspan x="0" y="0">JE RÉPONDS AU </tspan><tspan x="0" y="17">QUESTIONNAIRE</tspan></text>
  <g id="Calque_3" transform="translate(0 26.366)">
    <g id="Groupe_1875" data-name="Groupe 1875" transform="translate(0 0)">
      <path id="Tracé_2063" data-name="Tracé 2063" d="M611.712,228.393c-5.818-1.912-12.189-1.178-18,.651-3.441.97-2.943,2.439-4.481,3.749-4.349,3.7-7.461,6.083-7.3,12.539.074,2.933.505,6.822.358,9.76-.142,2.863-1.983,4.613-2.566,7.405-.564,2.7-3.843,2.462-5.041.632a9.933,9.933,0,0,1-3.134,7.577c-.435.434-.83.865-1.186,1.289a9.267,9.267,0,0,0,2.745,13.971l30.3,16.487c.447-.122.892-.245,1.339-.37,3.561-.992,7.113-2.021,10.644-3.123a37.094,37.094,0,0,1-2.928-6.005c-1.847-4.982-1.884-11.063-2.156-16.33-.3-5.828,2.059-10.251,5.047-14.467a3.391,3.391,0,0,1-.144-.615c-.424-3.345.6-6.661,3.734-8.415,2.866-4.175,2.646-11.869.881-17.213C617.964,232.592,615.585,229.667,611.712,228.393Z" transform="translate(-534.209 -227.269)" fill="#2c1b24"/>
      <path id="Tracé_2064" data-name="Tracé 2064" d="M1030.852,756.61c7.656,1.964,18.177,3.724,14.823,10.272l-19.075-.019Z" transform="translate(-903.426 -653.669)" fill="#e0896d"/>
      <g id="Groupe_1869" data-name="Groupe 1869" transform="translate(18.375 57.828)">
        <path id="Tracé_2065" data-name="Tracé 2065" d="M521.638,585.149H494.666A7.148,7.148,0,0,1,487.52,578V531.779a7.148,7.148,0,0,1,7.146-7.149h26.972a7.148,7.148,0,0,1,7.146,7.149V578A7.148,7.148,0,0,1,521.638,585.149Z" transform="translate(-487.52 -524.63)" fill="#000048"/>
        <path id="Tracé_2066" data-name="Tracé 2066" d="M521.09,552.444a2.509,2.509,0,0,0-1.474,1.46,9.4,9.4,0,0,0-.678,2.1,28.381,28.381,0,0,0-.542,4.432,80.309,80.309,0,0,0,.093,8.971c.169,2.991.443,5.976.8,8.951q.262,2.232.6,4.455c.22,1.482.466,2.962.768,4.43l-.214.049c-.36-1.46-.667-2.935-.941-4.414s-.5-2.968-.7-4.457q-.6-4.472-.875-8.983a72.932,72.932,0,0,1-.01-9.033,27.916,27.916,0,0,1,.647-4.488,9.749,9.749,0,0,1,.781-2.149,4.057,4.057,0,0,1,.673-.947,2.088,2.088,0,0,1,1.019-.591Z" transform="translate(-511.902 -546.863)" fill="#e5e5f4"/>
      </g>
      <path id="Tracé_2067" data-name="Tracé 2067" d="M571.09,573.83a251.319,251.319,0,0,0,8.517,49.744h20.084Z" transform="translate(-536.469 -506.434)" fill="#2f4077"/>
      <path id="Tracé_2068" data-name="Tracé 2068" d="M787.42,478.7c16.868-5.793,26.029,13.094,38.628,49.944l12.121,3.271-1.409,13.123-4.423.922-36.11.152Z" transform="translate(-710.743 -428.973)" fill="#e1000f"/>
      <rect id="Rectangle_1039" data-name="Rectangle 1039" width="220.454" height="8.843" transform="translate(0 112.791)" fill="#e5e5f4"/>
      <path id="Tracé_2069" data-name="Tracé 2069" d="M653.265,468.85l37.722,9.445,15.85,47.505-52.946,1.614-3.5-35.125Z" transform="translate(-600.352 -421.87)" fill="#e1000f"/>
      <path id="Tracé_2070" data-name="Tracé 2070" d="M645.18,573.83c9.267,9.333,7.218,23.01,15.136,24.367,5.241.9,20.136,3.028,27.244,5.99,1.437.6,5.4,3.551,4.79,6.169-.4,1.688-5.684.336-5.684.336l-39.583-3.975-8.383-19.4Z" transform="translate(-590.935 -506.434)" fill="#2f4077" opacity="0.3"/>
      <path id="Tracé_2071" data-name="Tracé 2071" d="M839.51,743.682c.27-.424,5.945-1.55,6.586-1.462a4.884,4.884,0,0,1,3.771,3.209l-8.4,4.43Z" transform="translate(-752.707 -642.073)" fill="#000048"/>
      <path id="Tracé_2072" data-name="Tracé 2072" d="M871.032,573.62l.974,2.221c.321.743.62,1.494.931,2.24.6,1.5,1.176,3.014,1.717,4.537,1.1,3.043,2.068,6.13,2.978,9.233q1.341,4.661,2.411,9.4c.342,1.581.675,3.164.97,4.755s.536,3.191.747,4.8l-.208.029q-.4-2.386-.906-4.753c-.325-1.579-.686-3.152-1.057-4.722q-1.12-4.708-2.465-9.356c-.881-3.1-1.86-6.176-2.9-9.232-.511-1.531-1.065-3.043-1.627-4.557-.286-.755-.562-1.513-.857-2.262l-.9-2.246Z" transform="translate(-777.946 -506.265)" fill="#000048"/>
      <path id="Tracé_2073" data-name="Tracé 2073" d="M863.491,755.991s-1.588,1.877-6.6.049c-2.36.274-6.752.064-15.1-1.3,0,0,3.033,2.122,9.889,2.485,0,0-.293,2.021-3.907,1.929-4.349-.109-4.852-.371-8.816-.206-.811.033-2.574,0-4.485-.064-3.332-.109-7.119-.286-7.119-.286l-3.3-5.906,6.59-3.158a17.3,17.3,0,0,1,4.016-1.206c4.255-.6,6.942-1.085,9.994-.56C848.04,748.354,858.393,751.79,863.491,755.991Z" transform="translate(-740.252 -646.365)" fill="#e18b76"/>
      <path id="Tracé_2074" data-name="Tracé 2074" d="M834.657,762.035l-.185.1c-3.332-.109-7.119-.286-7.119-.286l-3.3-5.906,6.59-3.158a17.3,17.3,0,0,1,4.016-1.206C832.234,752.57,830.251,755.162,834.657,762.035Z" transform="translate(-740.252 -649.617)" fill="#3a2924" opacity="0.15"/>
      <path id="Tracé_2075" data-name="Tracé 2075" d="M594.247,477.568c-8.573-1.758-29.47-3.22-35.308,7.6-4.808,8.909,7.242,38.742,12.461,49.234,2.148,4.319,8.387,6.455,10.811,6.472l34.45-.2c-2.317-.539-5.288-12.979,2.512-12.627l-28.531-3.977a3.906,3.906,0,0,1-2.724-1.713,8.142,8.142,0,0,1-1.135-2.308l-8.1-29.674Z" transform="translate(-525.786 -427.906)" fill="#e1000f"/>
      <path id="Tracé_2076" data-name="Tracé 2076" d="M997.98,794.953l-33.611-.021V791.76h33.807Z" transform="translate(-853.293 -681.983)" fill="#fff"/>
      <g id="Groupe_1870" data-name="Groupe 1870" transform="translate(132.541 69.699)">
        <path id="Tracé_2077" data-name="Tracé 2077" d="M1115.325,628.942l-40.545-.012,14.788-43.26,40.545.012Z" transform="translate(-1074.78 -585.67)" fill="#869ece"/>
      </g>
      <g id="Groupe_1871" data-name="Groupe 1871" transform="translate(102.183 101.298)">
        <path id="Tracé_2078" data-name="Tracé 2078" d="M929.957,748.16A33.611,33.611,0,0,1,935,749.408c1.652.517,3.278,1.124,4.874,1.8a45.246,45.246,0,0,1,4.689,2.246,24.318,24.318,0,0,1,4.285,2.952l-.14.169a25.352,25.352,0,0,0-2.135-1.431c-.729-.449-1.481-.863-2.243-1.258-1.522-.791-3.077-1.521-4.671-2.164-1.573-.692-3.188-1.282-4.808-1.857q-1.216-.429-2.45-.805c-.82-.257-1.648-.492-2.482-.677Z" transform="translate(-927.723 -748.16)" fill="#5c311e"/>
        <path id="Tracé_2079" data-name="Tracé 2079" d="M926.356,789.32l1.814.519c.6.161,1.211.3,1.821.426s1.225.222,1.843.309,1.238.144,1.862.2l.206.021.017.179a1.676,1.676,0,0,1-.068.671,1.236,1.236,0,0,1-.364.572,1.375,1.375,0,0,1-.589.286c-.1.025-.208.029-.309.045l-.3-.008v-.22l.272-.041a2.558,2.558,0,0,0,.255-.072,1.037,1.037,0,0,0,.41-.266.875.875,0,0,0,.214-.412,1.266,1.266,0,0,0,.012-.474l.224.2a18.243,18.243,0,0,1-3.795-.465,16.164,16.164,0,0,1-1.837-.541,18.783,18.783,0,0,1-1.761-.725Z" transform="translate(-924.791 -781.315)" fill="#5c311e"/>
        <path id="Tracé_2080" data-name="Tracé 2080" d="M918.649,766.85c1.458.187,2.924.331,4.392.478s2.934.3,4.4.537,2.91.5,4.36.762,2.9.533,4.347.824l.342.07-.146.317a4.161,4.161,0,0,1-.373.78,2.312,2.312,0,0,1-.311.364,3.635,3.635,0,0,1-.381.268,5.069,5.069,0,0,1-1.656.525,17.041,17.041,0,0,1-3.34.138c-.554-.021-1.106-.045-1.656-.093s-1.1-.082-1.648-.15c-1.1-.115-2.189-.27-3.28-.428l.027-.218c1.1.09,2.189.212,3.286.276.548.043,1.094.076,1.643.1s1.095.045,1.641.051a19.139,19.139,0,0,0,3.245-.191,4.572,4.572,0,0,0,1.472-.473,3.571,3.571,0,0,0,.292-.208,1.705,1.705,0,0,0,.222-.264,4.067,4.067,0,0,0,.327-.712l.2.387c-2.895-.544-5.785-1.128-8.684-1.632-1.441-.263-2.9-.44-4.364-.636s-2.924-.389-4.378-.657Z" transform="translate(-918.62 -763.215)" fill="#5c311e"/>
      </g>
      <line id="Ligne_37" data-name="Ligne 37" x2="220.454" transform="translate(0 112.809)" fill="none" stroke="#000048" stroke-miterlimit="10" stroke-width="5.002"/>
      <path id="Tracé_2081" data-name="Tracé 2081" d="M722.9,527.529a12.3,12.3,0,0,0,4.082,1.809,11.173,11.173,0,0,0,4.419.169,9.181,9.181,0,0,0,4.053-1.68,9.323,9.323,0,0,0,2.809-3.417l.2.088c-.156.35-.317.7-.482,1.052-.189.336-.41.657-.616.986-.229.313-.5.593-.75.893-.268.282-.575.525-.865.789a9.288,9.288,0,0,1-4.261,1.84,11.174,11.174,0,0,1-8.725-2.351Z" transform="translate(-658.661 -466.625)" fill="#000048"/>
      <path id="Tracé_2082" data-name="Tracé 2082" d="M671.7,573.69l1.882,6.4,1.851,6.4,1.831,6.41.91,3.207.455,1.6a12.142,12.142,0,0,0,.5,1.548,4.6,4.6,0,0,0,2.193,2.178,12.759,12.759,0,0,0,3.085,1.029c1.075.231,2.164.387,3.268.529l3.3.447,6.6.914,6.6.949-.027.208-6.617-.786-6.614-.821-3.3-.42c-1.1-.136-2.212-.29-3.309-.521a13.288,13.288,0,0,1-3.221-1.062,5.071,5.071,0,0,1-2.436-2.429,2.863,2.863,0,0,1-.161-.41c-.047-.138-.1-.28-.132-.412l-.224-.8-.449-1.6-.9-3.211L675,586.609l-1.763-6.429-1.734-6.437Z" transform="translate(-617.358 -506.321)" fill="#000048"/>
      <path id="Tracé_2083" data-name="Tracé 2083" d="M707.888,398.852l1.689,14.548c.5,4.331-4.059,7.96-8.684,6.758-2.644-.687-5.4-2.516-8.251-5.268a3.352,3.352,0,0,1-1.023-2.077l-1.8-17.534Z" transform="translate(-632.117 -362.607)" fill="#e18b76"/>
      <path id="Tracé_2084" data-name="Tracé 2084" d="M728.289,420.96l.92,7.921c-3.736.585-9-1.515-14.349-8.611Z" transform="translate(-652.289 -382.737)" fill="#3a2924"/>
      <path id="Tracé_2085" data-name="Tracé 2085" d="M712.041,277.336a39.154,39.154,0,0,1-1.372,7.87c-1.25,4.162-3.431,7.518-7.168,8.141-11,1.83-18.972-9.111-18.972-9.111l-1.279-14.885,6.639-11.489,14.866-.432L712,266.008A71.234,71.234,0,0,1,712.041,277.336Z" transform="translate(-626.824 -251.564)" fill="#e18b76"/>
      <path id="Tracé_2086" data-name="Tracé 2086" d="M695.756,252.858a3.083,3.083,0,0,1,.527-2.464L687,238.07l-20.266,2.417-3.966,13.16,3.624,5.764c5.9-.441,7.265-5.434,7.667-11.9,0,0,15.994-3.963,21.672,7.411l.591.064A14.146,14.146,0,0,1,695.756,252.858Z" transform="translate(-610.326 -235.969)" fill="#2c1b24"/>
      <path id="Tracé_2087" data-name="Tracé 2087" d="M669.243,333.476a3.221,3.221,0,0,0-2.759-1.031c-3.923.475-4.6,5.671-3.707,7.882a8.15,8.15,0,0,0,4.977,4.317l3.122-3.3C671.125,337.9,670.734,335.119,669.243,333.476Z" transform="translate(-610.049 -311.973)" fill="#e18b76"/>
      <path id="Tracé_2088" data-name="Tracé 2088" d="M617.865,415.79c2.156,6.132,8.787,23.447-2.045,23.014-5.222-.21-9.808-10.34-17.25-8.426a19.73,19.73,0,0,1,2.782-1.075Z" transform="translate(-558.606 -379.128)" fill="#3a2924" opacity="0.15"/>
      <path id="Tracé_2089" data-name="Tracé 2089" d="M627.837,395.27c2.09,3.971,7.936,23.613-2.022,22.477-4.8-.546-5.978-6.33-12.936-4.977Z" transform="translate(-570.135 -362.599)" fill="#2c1b24"/>
      <path id="Tracé_2090" data-name="Tracé 2090" d="M676.217,344.343a2.165,2.165,0,0,0-.358-1.241,2.223,2.223,0,0,0-.922-.811,1.491,1.491,0,0,0-1.137-.06,2.925,2.925,0,0,0-1.05.778l-.241-.144a2.274,2.274,0,0,1,1.034-1.212,1.858,1.858,0,0,1,.846-.2l.222.008.214.045a1.577,1.577,0,0,1,.41.14,2.433,2.433,0,0,1,1.162,1.169,2.04,2.04,0,0,1,.093,1.593Z" transform="translate(-618.172 -319.242)" fill="#3a2924"/>
      <path id="Tracé_2091" data-name="Tracé 2091" d="M799.833,337.162c.035,1.011.624,1.812,1.316,1.787s1.223-.863,1.188-1.875-.624-1.812-1.316-1.787S799.8,336.151,799.833,337.162Z" transform="translate(-720.742 -314.281)" fill="#3a2924"/>
      <path id="Tracé_2092" data-name="Tracé 2092" d="M743.733,339.132c.035,1.011.624,1.812,1.316,1.787s1.223-.863,1.188-1.875-.624-1.812-1.316-1.787S743.7,338.121,743.733,339.132Z" transform="translate(-675.548 -315.867)" fill="#3a2924"/>
      <path id="Tracé_2093" data-name="Tracé 2093" d="M766.028,392.461a5.384,5.384,0,0,1-1.8,1.532,3.525,3.525,0,0,1-2.469.177,6.081,6.081,0,0,1-2.094-1.143,9.839,9.839,0,0,1-1.627-1.641l.227-.235c.622.43,1.207.891,1.826,1.278a7.5,7.5,0,0,0,1.9.941,3.174,3.174,0,0,0,1.961-.035,7.9,7.9,0,0,0,1.847-1.109Z" transform="translate(-687.075 -359.28)" fill="#3a2924"/>
      <path id="Tracé_2094" data-name="Tracé 2094" d="M791.851,313.767a9.244,9.244,0,0,0-1.4-.862,2.67,2.67,0,0,0-1.369-.251,4.758,4.758,0,0,0-1.419.418c-.49.214-.97.5-1.52.745l-.15-.158a4.451,4.451,0,0,1,1.2-1.379,3.488,3.488,0,0,1,1.81-.716,2.763,2.763,0,0,1,1.917.585,3.446,3.446,0,0,1,1.11,1.48Z" transform="translate(-709.591 -295.164)" fill="#3a2924"/>
      <path id="Tracé_2095" data-name="Tracé 2095" d="M732.411,316.157a5.732,5.732,0,0,0-1.577-.828,3.92,3.92,0,0,0-1.617-.163,5.938,5.938,0,0,0-1.625.436c-.544.226-1.077.517-1.672.8l-.15-.158a4.649,4.649,0,0,1,1.373-1.464,4.14,4.14,0,0,1,1.971-.718,3.5,3.5,0,0,1,2.09.451,3.235,3.235,0,0,1,1.378,1.511Z" transform="translate(-661.078 -297.171)" fill="#3a2924"/>
      <path id="Tracé_2096" data-name="Tracé 2096" d="M778.483,339.35a7.5,7.5,0,0,0,1.063,2.361c.476.731,1.032,1.408,1.6,2.124.142.179.28.366.414.562a3.15,3.15,0,0,1,.373.686,1,1,0,0,1,.052.543,1.078,1.078,0,0,1-.255.465,3.033,3.033,0,0,1-.583.5,9.573,9.573,0,0,1-2.531,1.138l-.124-.3c.383-.228.778-.443,1.149-.686a10.4,10.4,0,0,0,1.071-.739,2.985,2.985,0,0,0,.418-.406.688.688,0,0,0,.072-.117.46.46,0,0,0-.035-.119,5.425,5.425,0,0,0-.677-1.015,16.321,16.321,0,0,1-1.553-2.269,5.905,5.905,0,0,1-.774-2.686Z" transform="translate(-703.283 -317.553)" fill="#3a2924"/>
      <path id="Tracé_2097" data-name="Tracé 2097" d="M638.171,341.371a8.68,8.68,0,0,1-1.279-1.906,10.25,10.25,0,0,1-.758-1.935,7.551,7.551,0,0,1-.294-1.941,5.734,5.734,0,0,1,.076-.965,3.335,3.335,0,0,1,.334-.945l.338.041a4.644,4.644,0,0,0-.058.943,5.846,5.846,0,0,0,.078.951,16.732,16.732,0,0,0,.395,1.91c.169.638.387,1.274.618,1.912.117.319.253.636.4.953.13.319.309.632.476.949Z" transform="translate(-588.631 -312.986)" fill="#fff"/>
      <path id="Tracé_2098" data-name="Tracé 2098" d="M720.53,281.737a6.356,6.356,0,0,1,1.495-.531c.511-.119,1.025-.222,1.542-.29a22.694,22.694,0,0,1,3.124-.2,23.765,23.765,0,0,1,6.2.84,16.661,16.661,0,0,1,5.649,2.74,12.141,12.141,0,0,1,3.849,4.916l-.253.121a13.194,13.194,0,0,0-3.97-4.533,16.223,16.223,0,0,0-2.613-1.525,20.24,20.24,0,0,0-2.854-1.035,25.244,25.244,0,0,0-6.023-.918,23.953,23.953,0,0,0-3.058.074,10.479,10.479,0,0,0-2.965.589Z" transform="translate(-656.857 -270.325)" fill="#3a2924"/>
      <path id="Tracé_2099" data-name="Tracé 2099" d="M538.476,780.621a9.085,9.085,0,0,1-5.033,1.538c-.089,0-.177,0-.266,0a6.188,6.188,0,0,0-.811-1.029,5.067,5.067,0,0,0-2.026-1.206,4.867,4.867,0,0,1,2.815.113s3.283-1.634,5.315.578A.017.017,0,0,0,538.476,780.621Z" transform="translate(-503.641 -672.069)" fill="#3a2924" opacity="0.3"/>
      <g id="Groupe_1872" data-name="Groupe 1872" transform="translate(63.903 18.284)">
        <path id="Tracé_2100" data-name="Tracé 2100" d="M728.045,322.174l5.152,7s-1.553,2.971-4.028,2.641l-5.2-6.824S725.374,321.983,728.045,322.174Z" transform="translate(-723.531 -321.995)" fill="#fff" opacity="0.23"/>
        <path id="Tracé_2101" data-name="Tracé 2101" d="M791.715,322.174l5.152,7s-1.553,2.971-4.028,2.641l-5.2-6.824S789.044,321.983,791.715,322.174Z" transform="translate(-774.823 -321.995)" fill="#fff" opacity="0.23"/>
        <path id="Tracé_2102" data-name="Tracé 2102" d="M731.784,326.329a5.037,5.037,0,1,1-5.037-5.039A5.038,5.038,0,0,1,731.784,326.329Z" transform="translate(-721.71 -321.29)" fill="none" stroke="#fff" stroke-miterlimit="10" stroke-width="0.493"/>
        <path id="Tracé_2103" data-name="Tracé 2103" d="M795.524,326.329a5.037,5.037,0,1,1-5.037-5.039A5.038,5.038,0,0,1,795.524,326.329Z" transform="translate(-773.059 -321.29)" fill="none" stroke="#fff" stroke-miterlimit="10" stroke-width="0.493"/>
        <path id="Tracé_2104" data-name="Tracé 2104" d="M773.53,346.226a3.15,3.15,0,0,1,2.327,0" transform="translate(-763.456 -341.187)" fill="none" stroke="#fff" stroke-miterlimit="10" stroke-width="0.493"/>
      </g>
      <g id="Groupe_1873" data-name="Groupe 1873" transform="translate(27.958 20.301)">
        <path id="Tracé_2105" data-name="Tracé 2105" d="M557.288,332.47s-2.832-2.065-4.464.4-.025,3.862-.025,3.862-1.421-4.354-4.359-3.008-.5,4.624-.5,4.624-2.741-3.547-4.5-1.41.484,4.914.484,4.914-3.035-1.6-3.526-.156,3.035,1.6,3.035,1.6-4.769-1.112-5.593,2.678,3.525,3.335,3.525,3.335-3.28.229-4.508,4.949S559.4,358.7,559.4,358.7l5.568-11.818Z" transform="translate(-536.814 -331.661)" fill="#2c1b24"/>
        <path id="Tracé_2106" data-name="Tracé 2106" d="M557.288,332.47s-2.832-2.065-4.464.4-.025,3.862-.025,3.862-1.421-4.354-4.359-3.008-.5,4.624-.5,4.624-2.741-3.547-4.5-1.41.484,4.914.484,4.914-3.035-1.6-3.526-.156,3.035,1.6,3.035,1.6-4.769-1.112-5.593,2.678,3.525,3.335,3.525,3.335-3.28.229-4.508,4.949S559.4,358.7,559.4,358.7l5.568-11.818Z" transform="translate(-536.814 -331.661)" fill="#2c1b24"/>
      </g>
      <g id="Groupe_1874" data-name="Groupe 1874" transform="translate(29.547 36.205)">
        <path id="Tracé_2107" data-name="Tracé 2107" d="M546.422,417.363s-2.695,2.242-.7,4.428,3.738.968,3.738.968-4.569.313-3.981,3.493,4.362,1.612,4.362,1.612-4.108,1.791-2.467,4.022,4.881.731,4.881.731-2.294,2.553-1.013,3.384,2.294-2.553,2.294-2.553-2.245,4.354,1.229,6.079,4.094-2.6,4.094-2.6-.579,3.238,3.7,5.583,9.813-20.777,9.813-20.777l-10.1-8.29Z" transform="translate(-544.987 -413.44)" fill="#2c1b24"/>
        <path id="Tracé_2108" data-name="Tracé 2108" d="M546.422,417.363s-2.695,2.242-.7,4.428,3.738.968,3.738.968-4.569.313-3.981,3.493,4.362,1.612,4.362,1.612-4.108,1.791-2.467,4.022,4.881.731,4.881.731-2.294,2.553-1.013,3.384,2.294-2.553,2.294-2.553-2.245,4.354,1.229,6.079,4.094-2.6,4.094-2.6-.579,3.238,3.7,5.583,9.813-20.777,9.813-20.777l-10.1-8.29Z" transform="translate(-544.987 -413.44)" fill="#2c1b24"/>
      </g>
      <path id="Tracé_1077_00000023963583465306511800000008430401821560052112_" d="M639.342,341.533a8.643,8.643,0,0,1-1.279-1.908,10.228,10.228,0,0,1-.76-1.937,7.645,7.645,0,0,1-.294-1.945,5.744,5.744,0,0,1,.076-.967,3.414,3.414,0,0,1,.334-.947l.336.041a4.666,4.666,0,0,0-.056.945,5.776,5.776,0,0,0,.078.951,16.8,16.8,0,0,0,.393,1.91c.169.638.387,1.276.618,1.91.117.319.253.636.4.955.132.319.309.634.476.951Z" transform="translate(-589.573 -313.107)" fill="#fff"/>
    </g>
  </g>
</svg>
